<svg xmlns="http://www.w3.org/2000/svg" xmlns:xlink="http://www.w3.org/1999/xlink" width="880px" height="450px" viewBox="0 0  880 450" preserveAspectRatio="xMidYMid meet" ><rect id="svgEditorBackground" x="0" y="0" width="880" height="450" style="fill: none; stroke: none;"/><rect x="96" y="304" style="fill:khaki;stroke:black;stroke-width:1px;" id="e1_rectangle" width="492" height="46" ry="0" rx="0" transform="matrix(0.953125 0 0 1 4.03125 0)"/><rect x="125" y="19" style="fill:khaki;stroke:black;stroke-width:1px;" id="e2_rectangle" width="30" height="285" ry="0" rx="0" transform="matrix(0.74 0 0 1 29.9 0)"/><rect x="106" y="9" style="fill:khaki;stroke:black;stroke-width:1px;" id="e3_rectangle" width="230" height="20" ry="0" rx="0" transform="matrix(1.19168 0 0 1 -12.3611 0)"/><rect x="202" y="29" style="fill:khaki;stroke:black;stroke-width:1px;" id="e4_rectangle" width="30" height="72" ry="0" rx="0" transform="matrix(0.482604 0.560975 -0.785893 0.676099 104.858 -122.678)"/><path d="M364,27c1.3000000000000114,38.7,19.100000000000023,76.2,4,116c-4.199999999999989,2.9000000000000057,-11.300000000000011,-1.6999999999999886,-14,-6c-6.800000000000011,-10.700000000000003,-1.1000000000000227,-25.5,1,-38c2.6999999999999886,-16.5,14,-31.299999999999997,15,-48c0.5,-7.399999999999999,-5.300000000000011,-29.3,-4,-22" style="stroke:black;fill:none;stroke-width:1px;" id="e6_freepath"/></svg>