<svg xmlns="http://www.w3.org/2000/svg" xmlns:xlink="http://www.w3.org/1999/xlink" width="880px" height="450px" viewBox="0 0  880 450" preserveAspectRatio="xMidYMid meet" ><defs id="svgEditorDefs"><symbol id="1f628" viewBox="0 0 64 64" preserveAspectRatio="xMidYMid meet"><rect x="0" y="0" width="64" height="64" style="stroke:none;fill:none;"/><g xmlns="http://www.w3.org/2000/svg"><circle cx="32" cy="32" fill="#ffdd67" r="30"/><path d="m16 49.5c0-6.461 5.314-14 16-14 10.689 0 16 7.539 16 14 0 0-5.311 0-16 0-10.686 0-16 0-16 0" fill="#fff"/><path d="m15.916 50l2.084-8h28l2.08 8z" fill="#664e27"/><path d="m15.917 48.699l1-3h30.16l1 3z" fill="#fff"/><path d="m32 34.498c11.04 0 17 7.729 17 15v1h-34v-1c0-7.271 5.959-15 17-15m14.957 14c-.523-5.99-5.729-12-14.957-12s-14.432 6.01-14.955 12h29.912" fill="#664e27"/><g fill="#ba9436"><circle cx="46.09" cy="23.786" r="9"/><circle cx="17.906" cy="23.786" r="9"/></g><circle cx="45.5" cy="21.785" fill="#fff" r="9"/><circle cx="45.5" cy="21.785" fill="#664e27" r="4.5"/><circle cx="18.5" cy="21.785" fill="#fff" r="9"/><circle cx="18.5" cy="21.785" fill="#664e27" r="4.5"/></g></symbol><symbol id="1f620" viewBox="0 0 64 64" preserveAspectRatio="xMidYMid meet"><rect x="0" y="0" width="64" height="64" style="stroke:none;fill:none;"/><g xmlns="http://www.w3.org/2000/svg"><circle cx="32" cy="32" fill="#ffdd67" r="30"/><path d="m42.684 48.84c-1.801-1.059-3.541-1.701-5.322-2.127-1.775-.426-3.566-.609-5.361-.611-1.799.008-3.588.189-5.361.615-1.781.428-3.52 1.066-5.322 2.123.771-1.977 2.484-3.531 4.396-4.525 1.932-1 4.119-1.486 6.287-1.486 2.166.004 4.354.486 6.283 1.49 1.909.994 3.624 2.546 4.4 4.521" fill="#664e27"/><path d="m52.29 24.598c2.01 4.313.146 9.439-4.168 11.449-4.313 2.01-9.439.145-11.449-4.166-1.514-3.248 14.1-10.531 15.617-7.283" fill="#fff"/><g fill="#664e27"><path d="m49.762 25.777c1.359 2.916.098 6.381-2.816 7.742-2.916 1.359-6.381.098-7.742-2.818-.864-1.851 9.694-6.775 10.558-4.924"/><path d="m53.895 24.926c-1.871.182-3.539.459-5.154.891-1.609.422-3.145.982-4.621 1.668-1.484.689-2.891 1.488-4.25 2.447-1.365.957-2.645 2.057-3.975 3.387.203-1.885 1.127-3.656 2.369-5.115 1.248-1.461 2.852-2.641 4.596-3.441 1.75-.811 3.67-1.262 5.59-1.279 1.911-.009 3.859.407 5.445 1.442"/></g><path d="m11.709 24.598c-2.01 4.313-.146 9.439 4.168 11.449 4.311 2.01 9.438.145 11.447-4.166 1.516-3.248-14.1-10.531-15.615-7.283" fill="#fff"/><g fill="#664e27"><path d="m14.238 25.777c-1.361 2.916-.1 6.381 2.814 7.742 2.918 1.359 6.383.098 7.744-2.818.862-1.851-9.694-6.775-10.558-4.924"/><path d="m10.11 24.926c1.586-1.035 3.531-1.451 5.443-1.443 1.922.018 3.842.469 5.592 1.279 1.744.801 3.346 1.98 4.594 3.441 1.242 1.461 2.168 3.23 2.371 5.115-1.33-1.33-2.611-2.43-3.975-3.387-1.361-.959-2.768-1.758-4.25-2.449-1.479-.684-3.01-1.244-4.623-1.666-1.612-.431-3.282-.709-5.152-.89"/></g></g></symbol></defs><rect id="svgEditorBackground" x="0" y="0" width="880" height="450" style="fill: none; stroke: none;"/><rect x="96" y="304" style="fill:khaki;stroke:black;stroke-width:1px;" id="e1_rectangle" width="492" height="46" ry="0" rx="0" transform="matrix(0.953125 0 0 1 4.03125 0)"/><rect x="125" y="19" style="fill:khaki;stroke:black;stroke-width:1px;" id="e2_rectangle" width="30" height="285" ry="0" rx="0" transform="matrix(0.74 0 0 1 29.9 0)"/><rect x="106" y="9" style="fill:khaki;stroke:black;stroke-width:1px;" id="e3_rectangle" width="230" height="20" ry="0" rx="0" transform="matrix(1.19168 0 0 1 -12.3611 0)"/><rect x="202" y="29" style="fill:khaki;stroke:black;stroke-width:1px;" id="e4_rectangle" width="30" height="72" ry="0" rx="0" transform="matrix(0.482604 0.560975 -0.785893 0.676099 104.858 -122.678)"/><path d="M364,27c1.3000000000000114,38.7,19.100000000000023,76.2,4,116c-4.199999999999989,2.9000000000000057,-11.300000000000011,-1.6999999999999886,-14,-6c-6.800000000000011,-10.700000000000003,-1.1000000000000227,-25.5,1,-38c2.6999999999999886,-16.5,14,-31.299999999999997,15,-48c0.5,-7.399999999999999,-5.300000000000011,-29.3,-4,-22" style="stroke:black;fill:none;stroke-width:1px;" id="e6_freepath"/><g id="g_e9_svg"/><rect x="355" y="142" style="fill:khaki;stroke:black;stroke-width:1px;" id="e11_rectangle" width="17" height="20" ry="0" rx="0" /><ellipse id="e13_ellipse" cx="364" cy="195" style="fill:khaki;stroke:black;stroke-width:1px;" rx="28" ry="41"/><use xlink:href="#1f620" x="333" y="85" width="61" height="61" id="e15_emoji"/><use xlink:href="#1f628" x="331" y="85" width="63" height="63" id="e16_emoji"/><line id="e17_line" x1="388" y1="173" x2="435" y2="140" style="stroke:black;fill:none;stroke-width:1px;"/><line id="e18_line" x1="434" y1="139" x2="430" y2="129" style="stroke:black;fill:none;stroke-width:1px;"/><line id="e19_line" x1="433" y1="139" x2="444" y2="125" style="stroke:black;fill:none;stroke-width:1px;"/><line id="e20_line" x1="433" y1="139" x2="460" y2="127" style="stroke:black;fill:none;stroke-width:1px;"/><line id="e21_line" x1="433" y1="140" x2="454" y2="137" style="stroke:black;fill:none;stroke-width:1px;"/><line id="e22_line" x1="436" y1="141" x2="451" y2="145" style="stroke:black;fill:none;stroke-width:1px;"/><line id="e23_line" x1="340" y1="173" x2="281" y2="138" style="stroke:black;fill:none;stroke-width:1px;" /><line id="e25_line" x1="282" y1="138" x2="282" y2="126" style="stroke:black;fill:none;stroke-width:1px;"/><line id="e26_line" x1="281" y1="138" x2="268" y2="121" style="stroke:black;fill:none;stroke-width:1px;"/><line id="e27_line" x1="280" y1="137" x2="259" y2="131" style="stroke:black;fill:none;stroke-width:1px;"/><line id="e30_line" x1="280" y1="139" x2="262" y2="137" style="stroke:black;fill:none;stroke-width:1px;"/><line id="e31_line" x1="280" y1="137" x2="268" y2="143" style="stroke:black;fill:none;stroke-width:1px;"/></svg>