<svg xmlns="http://www.w3.org/2000/svg" xmlns:xlink="http://www.w3.org/1999/xlink" width="880px" height="450px" viewBox="0 0  880 450" preserveAspectRatio="xMidYMid meet" ><defs id="svgEditorDefs"><symbol id="1f628" viewBox="0 0 64 64" preserveAspectRatio="xMidYMid meet"><rect x="0" y="0" width="64" height="64" style="stroke:none;fill:none;"/><g xmlns="http://www.w3.org/2000/svg"><circle cx="32" cy="32" fill="#ffdd67" r="30"/><path d="m16 49.5c0-6.461 5.314-14 16-14 10.689 0 16 7.539 16 14 0 0-5.311 0-16 0-10.686 0-16 0-16 0" fill="#fff"/><path d="m15.916 50l2.084-8h28l2.08 8z" fill="#664e27"/><path d="m15.917 48.699l1-3h30.16l1 3z" fill="#fff"/><path d="m32 34.498c11.04 0 17 7.729 17 15v1h-34v-1c0-7.271 5.959-15 17-15m14.957 14c-.523-5.99-5.729-12-14.957-12s-14.432 6.01-14.955 12h29.912" fill="#664e27"/><g fill="#ba9436"><circle cx="46.09" cy="23.786" r="9"/><circle cx="17.906" cy="23.786" r="9"/></g><circle cx="45.5" cy="21.785" fill="#fff" r="9"/><circle cx="45.5" cy="21.785" fill="#664e27" r="4.5"/><circle cx="18.5" cy="21.785" fill="#fff" r="9"/><circle cx="18.5" cy="21.785" fill="#664e27" r="4.5"/></g></symbol><symbol id="1f620" viewBox="0 0 64 64" preserveAspectRatio="xMidYMid meet"><rect x="0" y="0" width="64" height="64" style="stroke:none;fill:none;"/><g xmlns="http://www.w3.org/2000/svg"><circle cx="32" cy="32" fill="#ffdd67" r="30"/><path d="m42.684 48.84c-1.801-1.059-3.541-1.701-5.322-2.127-1.775-.426-3.566-.609-5.361-.611-1.799.008-3.588.189-5.361.615-1.781.428-3.52 1.066-5.322 2.123.771-1.977 2.484-3.531 4.396-4.525 1.932-1 4.119-1.486 6.287-1.486 2.166.004 4.354.486 6.283 1.49 1.909.994 3.624 2.546 4.4 4.521" fill="#664e27"/><path d="m52.29 24.598c2.01 4.313.146 9.439-4.168 11.449-4.313 2.01-9.439.145-11.449-4.166-1.514-3.248 14.1-10.531 15.617-7.283" fill="#fff"/><g fill="#664e27"><path d="m49.762 25.777c1.359 2.916.098 6.381-2.816 7.742-2.916 1.359-6.381.098-7.742-2.818-.864-1.851 9.694-6.775 10.558-4.924"/><path d="m53.895 24.926c-1.871.182-3.539.459-5.154.891-1.609.422-3.145.982-4.621 1.668-1.484.689-2.891 1.488-4.25 2.447-1.365.957-2.645 2.057-3.975 3.387.203-1.885 1.127-3.656 2.369-5.115 1.248-1.461 2.852-2.641 4.596-3.441 1.75-.811 3.67-1.262 5.59-1.279 1.911-.009 3.859.407 5.445 1.442"/></g><path d="m11.709 24.598c-2.01 4.313-.146 9.439 4.168 11.449 4.311 2.01 9.438.145 11.447-4.166 1.516-3.248-14.1-10.531-15.615-7.283" fill="#fff"/><g fill="#664e27"><path d="m14.238 25.777c-1.361 2.916-.1 6.381 2.814 7.742 2.918 1.359 6.383.098 7.744-2.818.862-1.851-9.694-6.775-10.558-4.924"/><path d="m10.11 24.926c1.586-1.035 3.531-1.451 5.443-1.443 1.922.018 3.842.469 5.592 1.279 1.744.801 3.346 1.98 4.594 3.441 1.242 1.461 2.168 3.23 2.371 5.115-1.33-1.33-2.611-2.43-3.975-3.387-1.361-.959-2.768-1.758-4.25-2.449-1.479-.684-3.01-1.244-4.623-1.666-1.612-.431-3.282-.709-5.152-.89"/></g></g></symbol><symbol id="1f622" viewBox="0 0 64 64" preserveAspectRatio="xMidYMid meet"><rect x="0" y="0" width="64" height="64" style="stroke:none;fill:none;"/><g xmlns="http://www.w3.org/2000/svg"><circle cx="32" cy="32" fill="#ffdd67" r="30"/><path d="m42.684 49.84c-1.801-1.059-3.541-1.701-5.322-2.127-1.775-.426-3.566-.609-5.361-.611-1.799.008-3.588.189-5.361.615-1.781.428-3.52 1.066-5.322 2.123.771-1.977 2.484-3.531 4.396-4.525 1.932-1 4.119-1.486 6.287-1.486 2.166.004 4.354.486 6.283 1.49 1.909.994 3.624 2.546 4.4 4.521" fill="#664e27"/><path d="m52.75 30c0 4.971-4.03 9-9 9-4.971 0-9-4.03-9-9 0-4.967 4.03-9 9-9 4.969 0 9 4.03 9 9" fill="#fff"/><circle cx="43.75" cy="30" fill="#664e27" r="6"/><g fill="#fff"><ellipse cx="45.3" cy="34.469" rx="2.812" ry="3.25"/><ellipse cx="41.529" cy="30" rx="1.645" ry="1.902"/><path d="m29.25 30c0 4.971-4.03 9-9 9-4.971 0-9-4.03-9-9 0-4.967 4.03-9 9-9 4.969 0 9 4.03 9 9"/></g><circle cx="20.25" cy="30" fill="#664e27" r="6"/><g fill="#fff"><ellipse cx="21.801" cy="34.469" rx="2.811" ry="3.25"/><ellipse cx="18.03" cy="30" rx="1.644" ry="1.902"/></g><path d="m46.35 35c-5.02 6.857-7.895 13.166-7.895 18.352 0 4.406 3.535 7.977 7.898 7.977 4.359 0 7.896-3.57 7.896-7.977.001-5.186-2.964-11.602-7.899-18.352" fill="#65b1ef"/><g fill="#917524"><path d="m53.2 19.652c-3.234-2.732-7.523-3.881-11.691-3.133-.58.113-1.09-2.02-.387-2.156 4.811-.863 9.758.461 13.492 3.615.541.469-.969 2.061-1.414 1.674"/><path d="m22.486 16.369c-4.168-.748-8.455.4-11.691 3.133-.443.389-1.955-1.205-1.412-1.674 3.732-3.152 8.68-4.479 13.492-3.615.703.135.191 2.269-.389 2.156"/></g></g></symbol><symbol id="1f62c" viewBox="0 0 64 64" preserveAspectRatio="xMidYMid meet"><rect x="0" y="0" width="64" height="64" style="stroke:none;fill:none;"/><g xmlns="http://www.w3.org/2000/svg"><circle cx="31.999" cy="32" fill="#ffdd67" r="30"/><g fill="#664e27"><circle cx="20.499" cy="24.5" r="4.5"/><circle cx="43.499" cy="24.5" r="4.5"/></g><path d="m43.795 49.861h-23.592c-10.939 0-10.939-16 0-16h23.592c10.939 0 10.939 16 0 16" fill="#fff"/><g fill="#98a0a6"><path d="m31.5 35.26h1v13.209h-1z"/><path d="m37.719 35.26h1v13.209h-1z"/><path d="m25.279 35.26h1v13.209h-1z"/><path d="m19.06 35.26h1v13.209h-1z"/><path d="m43.939 35.26h1v13.209h-1z"/><path d="m13.249 41.36h37.5v1h-37.5z"/></g><path d="m43.795 35.861c4.286 0 6.205 3.01 6.205 6s-1.919 6-6.205 6h-23.592c-4.286 0-6.205-3.01-6.205-6s1.919-6 6.205-6h23.592m0-2h-23.592c-10.939 0-10.939 16 0 16h23.592c10.939 0 10.939-16 0-16z" fill="#664e27"/></g></symbol></defs><rect id="svgEditorBackground" x="0" y="0" width="880" height="450" style="fill: none; stroke: none;"/><rect x="96" y="304" style="fill:khaki;stroke:black;stroke-width:1px;" id="e1_rectangle" width="492" height="46" ry="0" rx="0" transform="matrix(0.953125 0 0 1 4.03125 0)"/><rect x="125" y="19" style="fill:khaki;stroke:black;stroke-width:1px;" id="e2_rectangle" width="30" height="285" ry="0" rx="0" transform="matrix(0.74 0 0 1 29.9 0)"/><rect x="106" y="9" style="fill:khaki;stroke:black;stroke-width:1px;" id="e3_rectangle" width="230" height="20" ry="0" rx="0" transform="matrix(1.19168 0 0 1 -12.3611 0)"/><rect x="202" y="29" style="fill:khaki;stroke:black;stroke-width:1px;" id="e4_rectangle" width="30" height="72" ry="0" rx="0" transform="matrix(0.482604 0.560975 -0.785893 0.676099 104.858 -122.678)"/><g id="g_e9_svg"/><rect x="355" y="142" style="fill:khaki;stroke:black;stroke-width:1px;" id="e11_rectangle" width="17" height="20" ry="0" rx="0" /><ellipse id="e13_ellipse" cx="364" cy="195" style="fill:khaki;stroke:black;stroke-width:1px;" rx="28" ry="41"/><line id="e17_line" x1="388" y1="173" x2="435" y2="140" style="stroke:black;fill:none;stroke-width:1px;"/><line id="e18_line" x1="434" y1="139" x2="430" y2="129" style="stroke:black;fill:none;stroke-width:1px;"/><line id="e19_line" x1="433" y1="139" x2="444" y2="125" style="stroke:black;fill:none;stroke-width:1px;"/><line id="e20_line" x1="433" y1="139" x2="460" y2="127" style="stroke:black;fill:none;stroke-width:1px;"/><line id="e21_line" x1="433" y1="140" x2="454" y2="137" style="stroke:black;fill:none;stroke-width:1px;"/><line id="e22_line" x1="436" y1="141" x2="451" y2="145" style="stroke:black;fill:none;stroke-width:1px;"/><line id="e23_line" x1="340" y1="173" x2="281" y2="138" style="stroke:black;fill:none;stroke-width:1px;" /><line id="e25_line" x1="282" y1="138" x2="282" y2="126" style="stroke:black;fill:none;stroke-width:1px;"/><line id="e26_line" x1="281" y1="138" x2="268" y2="121" style="stroke:black;fill:none;stroke-width:1px;"/><line id="e27_line" x1="280" y1="137" x2="259" y2="131" style="stroke:black;fill:none;stroke-width:1px;"/><line id="e30_line" x1="280" y1="139" x2="262" y2="137" style="stroke:black;fill:none;stroke-width:1px;"/><line id="e31_line" x1="280" y1="137" x2="268" y2="143" style="stroke:black;fill:none;stroke-width:1px;"/><line id="e33_line" x1="342" y1="223" x2="281" y2="273" style="stroke:black;fill:none;stroke-width:1px;"/><line id="e34_line" x1="279" y1="272" x2="263" y2="272" style="stroke:black;fill:none;stroke-width:1px;"/><line id="e35_line" x1="279" y1="271" x2="262" y2="280" style="stroke:black;fill:none;stroke-width:1px;"/><line id="e36_line" x1="279" y1="269" x2="266" y2="287" style="stroke:black;fill:none;stroke-width:1px;"/><line id="e37_line" x1="280" y1="269" x2="274" y2="288" style="stroke:black;fill:none;stroke-width:1px;"/><line id="e38_line" x1="281" y1="268" x2="280" y2="283" style="stroke:black;fill:none;stroke-width:1px;"/><line id="e39_line" x1="387" y1="219" x2="412" y2="273" style="stroke:black;fill:none;stroke-width:1px;"/><line id="e40_line" x1="412" y1="273" x2="426" y2="279" style="stroke:black;fill:none;stroke-width:1px;"/><line id="e41_line" x1="412" y1="274" x2="424" y2="282" style="stroke:black;fill:none;stroke-width:1px;"/><line id="e42_line" x1="413" y1="275" x2="420" y2="288" style="stroke:black;fill:none;stroke-width:1px;"/><line id="e43_line" x1="413" y1="274" x2="412" y2="289" style="stroke:black;fill:none;stroke-width:1px;"/><line id="e44_line" x1="412" y1="274" x2="408" y2="286" style="stroke:black;fill:none;stroke-width:1px;"/><line id="e56_line" x1="368" y1="29" x2="368" y2="143" style="stroke:black;fill:none;stroke-width:1px;"/><line id="e57_line" x1="366" y1="29" x2="366" y2="145" style="stroke:black;fill:none;stroke-width:1px;"/><use xlink:href="#1f62c" x="337" y="91" width="58" height="58" id="e58_emoji"/><line id="e59_line" x1="354" y1="81" x2="359" y2="98" style="stroke:black;fill:none;stroke-width:1px;"/><line id="e60_line" x1="342" y1="88" x2="352" y2="99" style="stroke:black;fill:none;stroke-width:1px;"/><line id="e61_line" x1="334" y1="97" x2="346" y2="106" style="stroke:black;fill:none;stroke-width:1px;"/><line id="e62_line" x1="372" y1="81" x2="371" y2="97" style="stroke:black;fill:none;stroke-width:1px;"/><line id="e63_line" x1="362" y1="77" x2="364" y2="95" style="stroke:black;fill:none;stroke-width:1px;"/><line id="e64_line" x1="382" y1="83" x2="376" y2="97" style="stroke:black;fill:none;stroke-width:1px;"/><line id="e65_line" x1="392" y1="87" x2="381" y2="100" style="stroke:black;fill:none;stroke-width:1px;"/><line id="e66_line" x1="388" y1="106" x2="400" y2="100" style="stroke:black;fill:none;stroke-width:1px;" /><line id="e67_line" x1="395" y1="92" x2="384" y2="103" style="stroke:black;fill:none;stroke-width:1px;"/><line id="e68_line" x1="328" y1="103" x2="342" y2="109" style="stroke:black;fill:none;stroke-width:1px;"/><line id="e69_line" x1="397" y1="105" x2="388" y2="111" style="stroke:black;fill:none;stroke-width:1px;"/><line id="e70_line" x1="328" y1="111" x2="340" y2="114" style="stroke:black;fill:none;stroke-width:1px;"/><line id="e71_line" x1="390" y1="114" x2="402" y2="109" style="stroke:black;fill:none;stroke-width:1px;"/><line id="e72_line" x1="350" y1="103" x2="343" y2="96" style="stroke:black;fill:none;stroke-width:1px;"/><line id="e73_line" x1="358" y1="99" x2="350" y2="91" style="stroke:black;fill:none;stroke-width:1px;"/><line id="e74_line" x1="391" y1="117" x2="406" y2="114" style="stroke:black;fill:none;stroke-width:1px;"/><line id="e75_line" x1="344" y1="112" x2="332" y2="107" style="stroke:black;fill:none;stroke-width:1px;"/><line id="e76_line" x1="363" y1="100" x2="358" y2="85" style="stroke:black;fill:none;stroke-width:1px;"/><line id="e77_line" x1="374" y1="101" x2="382" y2="92" style="stroke:black;fill:none;stroke-width:1px;"/></svg>